o Room
v 0.500000 -0.500000 -0.500000
v 0.500000 -0.500000 0.500000
v -0.500000 -0.500000 0.500000
v -0.500000 -0.500000 -0.500000
v 0.500000 0.500000 -0.5
v 0.5 0.500000 0.500001
v -0.500000 0.500000 0.500000
v -0.500000 0.500000 -0.500000
vn 0.000000 1.000000 0.000000
vn 0.000000 -1.000000 0.000000
vn -1.000000 0.000000 0.000000
vn -0.000000 0.000000 -1.000000
vn 1.000000 -0.000000 -0.000000
vn 0.000000 0.000000 1.000000
usemtl Material
s off
f 4//1 3//1 2//1
f 6//2 7//2 8//2
f 2//3 6//3 5//3
f 3//4 7//4 6//4
f 8//5 7//5 3//5
f 8//6 4//6 1//6
f 4//1 2//1 1//1
f 6//2 8//2 5//2
f 2//3 5//3 1//3
f 3//4 6//4 2//4
f 8//5 3//5 4//5
f 8//6 1//6 5//6