# Blender 4.1.1
# www.blender.org
mtllib switch.mtl
o lowpoly_torus
v 0.000000 0.000000 -0.550000
v 0.353553 0.050000 -0.353553
v 0.050000 -0.353553 -0.353553
v 0.035355 -0.378553 -0.378553
v 0.378553 0.035355 -0.378553
v 0.388909 0.000000 -0.388909
v 0.353553 0.353553 0.050000
v 0.378553 0.378553 0.035355
v 0.000000 -0.388909 -0.388909
v -0.035355 -0.378553 -0.378553
v 0.388909 0.388909 0.000000
v 0.378553 0.378553 -0.035355
v 0.378553 -0.035355 -0.378553
v 0.353553 0.353553 -0.050000
v -0.050000 -0.353553 -0.353553
v 0.353553 -0.050000 -0.353553
v 0.328553 0.328553 -0.035355
v -0.035355 -0.328553 -0.328553
v 0.318198 0.318198 -0.000000
v 0.328553 -0.035355 -0.328553
v 0.328553 0.328553 0.035355
v -0.000000 -0.318198 -0.318198
v 0.318198 -0.000000 -0.318198
v 0.035355 -0.328553 -0.328553
v 0.328553 0.035355 -0.328553
v 0.353553 -0.353553 0.050000
v 0.378553 -0.378553 0.035355
v 0.388909 -0.388909 0.000000
v 0.378553 -0.378553 -0.035355
v 0.353553 -0.353553 -0.050000
v 0.328553 -0.328553 -0.035355
v 0.318198 -0.318198 -0.000000
v 0.328553 -0.328553 0.035355
v 0.353553 0.050000 0.353553
v 0.050000 -0.353553 0.353553
v 0.035355 -0.378553 0.378553
v 0.378553 0.035355 0.378553
v 0.000000 -0.388909 0.388909
v -0.353553 -0.353553 0.050000
v -0.378553 -0.378553 0.035355
v 0.388909 0.000000 0.388909
v -0.388909 -0.388909 0.000000
v -0.035355 -0.378553 0.378553
v -0.378553 -0.378553 -0.035355
v 0.378553 -0.035355 0.378553
v -0.353553 -0.353553 -0.050000
v 0.353553 -0.050000 0.353553
v -0.050000 -0.353553 0.353553
v -0.328553 -0.328553 -0.035355
v -0.318198 -0.318198 -0.000000
v -0.035355 -0.328553 0.328553
v -0.328553 -0.328553 0.035355
v 0.328553 -0.035355 0.328553
v 0.318198 -0.000000 0.318198
v -0.000000 -0.318198 0.318198
v -0.550000 -0.000000 0.000000
v 0.328553 0.035355 0.328553
v 0.035355 -0.328553 0.328553
v 0.050000 0.353553 0.353553
v -0.353553 0.050000 0.353553
v -0.353553 0.353553 0.050000
v 0.035355 0.378553 0.378553
v -0.378553 0.378553 0.035355
v -0.378553 0.035355 0.378553
v -0.388909 0.388909 0.000000
v 0.000000 0.388909 0.388909
v -0.378553 0.378553 -0.035355
v -0.388909 0.000000 0.388909
v -0.353553 0.353553 -0.050000
v -0.378553 -0.035355 0.378553
v -0.328553 0.328553 -0.035355
v -0.035355 0.378553 0.378553
v -0.318198 0.318198 -0.000000
v -0.328553 0.328553 0.035355
v -0.353553 -0.050000 0.353553
v -0.050000 0.353553 0.353553
v -0.328553 -0.035355 0.328553
v -0.035355 0.328553 0.328553
v -0.000000 0.318198 0.318198
v -0.318198 -0.000000 0.318198
v 0.035355 0.328553 0.328553
v -0.328553 0.035355 0.328553
v -0.000000 0.450000 0.000000
v -0.450000 -0.000000 0.000000
v 0.050000 0.353553 -0.353553
v -0.353553 0.050000 -0.353553
v 0.035355 0.378553 -0.378553
v -0.378553 0.035355 -0.378553
v -0.388909 0.000000 -0.388909
v 0.000000 0.388909 -0.388909
v -0.035355 0.378553 -0.378553
v -0.378553 -0.035355 -0.378553
v -0.050000 0.353553 -0.353553
v -0.353553 -0.050000 -0.353553
v -0.035355 0.328553 -0.328553
v -0.328553 -0.035355 -0.328553
v -0.318198 -0.000000 -0.318198
v -0.000000 0.318198 -0.318198
v -0.328553 0.035355 -0.328553
v 0.035355 0.328553 -0.328553
v 0.035355 0.035355 -0.520711
v 0.036883 -0.036883 -0.516390
v 0.047866 -0.047866 -0.475022
v 0.031820 -0.031820 -0.450000
v 0.035355 0.035355 -0.450000
v 0.047866 0.047866 -0.475022
v 0.048138 0.048138 0.484557
v 0.032392 0.032598 0.523080
v 0.032598 -0.032392 0.523080
v 0.050000 -0.050000 0.479289
v 0.031820 -0.031820 0.450000
v 0.031820 0.031820 0.450000
v -0.036883 0.036883 0.516390
v -0.050000 0.050000 0.479289
v -0.000000 -0.000000 0.550000
v -0.050000 -0.050000 0.479289
v -0.036883 -0.036883 0.516390
v -0.036883 -0.036883 0.453056
v -0.000000 -0.000000 0.450000
v -0.036883 0.036883 0.453056
v -0.036883 0.036883 -0.516390
v -0.050000 0.050000 -0.479289
v -0.050000 -0.050000 -0.479289
v -0.036883 -0.036883 -0.516390
v -0.036883 -0.036883 -0.453056
v -0.000000 -0.000000 -0.450000
v -0.031820 0.031820 -0.450000
v 0.523080 0.032598 -0.032392
v 0.520711 -0.035355 -0.035355
v 0.453056 -0.036883 -0.036883
v 0.479289 -0.050000 -0.050000
v 0.450000 0.031820 -0.031820
v 0.475022 0.047866 -0.047866
v 0.516390 0.036883 0.036883
v 0.484557 0.048138 0.048138
v 0.550000 -0.000000 0.000000
v 0.479289 -0.050000 0.050000
v 0.516390 -0.036883 0.036883
v 0.453056 -0.036883 0.036883
v 0.450000 -0.000000 -0.000000
v 0.453056 0.036883 0.036883
v -0.516390 0.036883 0.036883
v -0.484557 0.048138 0.048138
v -0.479289 -0.050000 0.050000
v -0.516390 -0.036883 0.036883
v -0.453056 -0.036883 0.036883
v -0.453056 0.036883 0.036883
v -0.523080 0.032392 -0.032598
v -0.520711 -0.035355 -0.035355
v -0.479289 -0.050000 -0.050000
v -0.453056 -0.036883 -0.036883
v -0.450000 0.031820 -0.031820
v -0.475022 0.047866 -0.047866
v 0.032598 -0.523080 -0.032392
v -0.050000 -0.479289 -0.050000
v -0.035355 -0.520711 -0.035355
v -0.035355 -0.450000 -0.035355
v 0.031820 -0.450000 -0.031820
v 0.047866 -0.475022 -0.047866
v 0.050000 -0.479289 0.050000
v 0.032392 -0.523080 0.032598
v -0.000000 -0.550000 0.000000
v -0.036883 -0.516390 0.036883
v -0.036883 -0.453056 0.036883
v -0.050000 -0.479289 0.050000
v -0.000000 -0.450000 0.000000
v 0.031820 -0.450000 0.031820
v 0.036883 0.516390 0.036883
v 0.048138 0.484557 0.048138
v -0.000000 0.550000 0.000000
v -0.050000 0.479289 0.050000
v -0.036883 0.516390 0.036883
v -0.036883 0.453056 0.036883
v 0.035355 0.450000 0.035355
v 0.032392 0.523080 -0.032598
v -0.035355 0.520711 -0.035355
v -0.050000 0.479289 -0.050000
v -0.035355 0.450000 -0.035355
v 0.031820 0.450000 -0.031820
v 0.047866 0.475022 -0.047866
vn 0.1213 0.9484 -0.2929
vn 0.1471 0.9106 -0.3863
vn 0.3574 0.3574 -0.8629
vn 0.3404 -0.4243 -0.8391
vn 0.3574 -0.3574 -0.8629
vn 0.1051 -0.9539 -0.2812
vn 0.1566 -0.9125 -0.3780
vn -0.1907 -0.8773 0.4404
vn -0.1566 -0.9125 0.3780
vn -0.3574 -0.3574 0.8629
vn -0.3574 0.3574 0.8629
vn -0.1566 0.9125 0.3780
vn 0.3818 0.9116 -0.1522
vn 0.3374 0.9327 -0.1276
vn 0.8629 0.3574 -0.3574
vn 0.8629 -0.3574 -0.3574
vn 0.3780 -0.9125 -0.1566
vn -0.3780 -0.9125 0.1566
vn -0.8629 -0.3574 0.3574
vn -0.8342 -0.4230 0.3539
vn -0.8629 0.3574 0.3574
vn -0.3780 0.9125 0.1566
vn -0.4404 0.8773 0.1907
vn 0.3780 0.9125 0.1566
vn 0.8396 0.4173 0.3478
vn 0.8659 0.3564 0.3509
vn 0.8391 -0.4243 0.3404
vn 0.8629 -0.3574 0.3574
vn 0.3780 -0.9125 0.1566
vn -0.3780 -0.9125 -0.1566
vn -0.8396 -0.4173 -0.3478
vn -0.8592 -0.3585 -0.3649
vn -0.8342 0.4230 -0.3539
vn -0.8629 0.3574 -0.3574
vn -0.2917 0.9475 -0.1309
vn -0.3780 0.9125 -0.1566
vn 0.1522 0.9116 0.3818
vn 0.1791 0.8848 0.4301
vn 0.3574 0.3574 0.8629
vn 0.3574 -0.3574 0.8629
vn 0.1566 -0.9125 0.3780
vn 0.1699 -0.8891 0.4250
vn -0.1632 -0.9137 -0.3721
vn -0.1804 -0.8819 -0.4355
vn -0.3574 -0.3574 -0.8629
vn -0.3574 0.3574 -0.8629
vn -0.1646 0.9140 -0.3708
vn -0.1581 0.9196 -0.3596
vn -0.3478 0.4173 0.8396
vn -0.3509 0.3564 0.8659
vn -0.3404 -0.4243 0.8391
vn 0.3649 -0.3585 -0.8592
vn 0.3539 0.4230 -0.8342
vn 0.1566 0.9125 -0.3780
vn -0.8391 0.4243 0.3404
vn -0.8659 -0.3564 0.3509
vn -0.8396 -0.4173 0.3478
vn 0.8342 -0.4230 -0.3539
vn 0.8592 0.3585 -0.3649
vn 0.8396 0.4173 -0.3478
vn 0.3708 0.9140 -0.1646
vn 0.2953 0.9477 -0.1211
vn -0.3423 0.9298 -0.1350
vn -0.3863 0.9106 -0.1471
vn -0.8629 -0.3574 -0.3574
vn 0.8396 -0.4173 0.3478
vn 0.8592 -0.3585 0.3649
vn 0.8629 0.3574 0.3574
vn 0.4449 0.8767 0.1829
vn 0.3721 0.9137 0.1632
vn -0.1566 0.9125 -0.3780
vn -0.3404 0.4243 -0.8391
vn -0.3509 -0.3564 -0.8659
vn -0.3478 -0.4173 -0.8396
vn -0.1566 -0.9125 -0.3780
vn 0.3539 -0.4230 0.8342
vn 0.1566 0.9125 0.3780
vn 0.1872 0.8824 0.4316
vn 0.9514 -0.1189 -0.2842
vn 0.9106 -0.1471 -0.3863
vn 0.4173 -0.3478 -0.8396
vn 0.3564 -0.3509 -0.8659
vn -0.4243 -0.3404 -0.8391
vn -0.9125 -0.1566 -0.3780
vn -0.9125 0.1566 0.3780
vn -0.4173 0.3478 0.8396
vn -0.3585 0.3649 0.8592
vn 0.8964 0.1730 0.4081
vn 0.9116 -0.3818 -0.1522
vn 0.9327 -0.3374 -0.1276
vn 0.3574 -0.8629 -0.3574
vn -0.3574 -0.8629 -0.3574
vn -0.9125 -0.3780 -0.1566
vn -0.9125 0.3780 0.1566
vn -0.3574 0.8629 0.3574
vn 0.3574 0.8629 0.3574
vn 0.9125 0.3780 0.1566
vn 0.8773 0.4404 0.1907
vn 0.8891 -0.4250 0.1699
vn 0.9125 -0.3780 0.1566
vn 0.3574 -0.8629 0.3574
vn -0.4243 -0.8391 0.3404
vn -0.3574 -0.8629 0.3574
vn -0.9125 -0.3780 0.1566
vn -0.9125 0.3780 -0.1566
vn -0.4173 0.8396 -0.3478
vn -0.3585 0.8592 -0.3649
vn 0.3574 0.8629 -0.3574
vn 0.8819 0.4355 -0.1804
vn 0.9137 0.3721 -0.1632
vn 0.9116 -0.1522 0.3818
vn 0.8886 -0.1755 0.4237
vn -0.3564 -0.3509 0.8659
vn -0.4173 -0.3478 0.8396
vn -0.9125 -0.1566 0.3780
vn -0.9125 0.1566 -0.3780
vn -0.4230 0.3539 -0.8342
vn 0.9125 0.1566 -0.3780
vn 0.8824 0.1872 -0.4316
vn 0.8854 0.1727 0.4316
vn 0.9125 0.1566 0.3780
vn -0.4243 0.3404 0.8391
vn -0.4173 -0.3478 -0.8396
vn -0.3585 -0.3649 -0.8592
vn 0.9196 -0.1596 -0.3589
vn 0.9137 -0.1632 -0.3721
vn 0.4243 0.8391 0.3404
vn -0.3564 0.8659 0.3509
vn -0.4230 -0.8342 -0.3539
vn 0.9140 -0.3708 -0.1646
vn 0.9447 -0.3030 -0.1255
vn 0.9298 0.3423 -0.1350
vn 0.9106 0.3863 -0.1471
vn -0.3574 0.8629 -0.3574
vn 0.8767 -0.4449 0.1829
vn 0.9137 -0.3721 0.1632
vn 0.9508 0.1086 -0.2901
vn -0.3564 0.3509 -0.8659
vn -0.4173 0.3478 -0.8396
vn -0.9137 -0.1632 0.3721
vn -0.8819 -0.1804 0.4355
vn 0.9125 -0.1566 0.3780
vn 0.1566 0.3780 0.9125
vn 0.3478 0.8396 0.4173
vn 0.3509 0.8659 0.3564
vn 0.1276 0.3374 -0.9327
vn 0.1522 0.3818 -0.9116
vn -0.1907 -0.4404 -0.8773
vn -0.1566 -0.3780 -0.9125
vn -0.1343 -0.2997 0.9445
vn -0.1566 -0.3780 0.9125
vn 0.3780 0.1566 0.9125
vn 0.8391 0.3404 0.4243
vn 0.3863 0.1471 -0.9106
vn 0.3423 0.1350 -0.9298
vn -0.3721 -0.1632 -0.9137
vn -0.4449 -0.1829 -0.8767
vn -0.8592 -0.3649 0.3585
vn -0.8396 -0.3478 0.4173
vn -0.3347 -0.1437 0.9313
vn 0.3780 -0.1566 0.9125
vn 0.8659 -0.3509 0.3564
vn 0.3780 -0.1566 -0.9125
vn -0.3780 0.1566 -0.9125
vn -0.8396 0.3478 -0.4173
vn -0.8592 0.3649 -0.3585
vn -0.8342 0.3539 0.4230
vn -0.3780 0.1566 0.9125
vn 0.1522 -0.3818 0.9116
vn 0.1755 -0.4237 0.8886
vn 0.1471 -0.3863 -0.9106
vn 0.1350 -0.3423 -0.9298
vn -0.1632 0.3721 -0.9137
vn -0.1566 0.3780 0.9125
vn -0.1872 0.4316 0.8824
vn -0.3478 -0.8396 0.4173
vn -0.3509 -0.8659 0.3564
vn 0.1566 0.3780 -0.9125
vn 0.3539 0.8342 0.4230
vn -0.3780 -0.1566 0.9125
vn -0.8391 -0.3404 0.4243
vn -0.3780 -0.1566 -0.9125
vn 0.3780 0.1566 -0.9125
vn 0.8342 0.3539 -0.4230
vn 0.8592 0.3649 0.3585
vn 0.8396 0.3478 0.4173
vn -0.8396 0.3478 0.4173
vn -0.8659 0.3509 0.3564
vn -0.3374 0.1276 -0.9327
vn -0.3818 0.1522 -0.9116
vn 0.4404 -0.1907 -0.8773
vn 0.8342 -0.3539 0.4230
vn 0.2917 -0.1309 0.9475
vn -0.3404 0.8391 0.4243
vn -0.1566 0.3780 -0.9125
vn 0.1566 -0.3780 -0.9125
vn 0.3649 -0.8592 0.3585
vn 0.3478 -0.8396 0.4173
vn 0.1566 -0.3780 0.9125
vn 0.3478 -0.4173 -0.8396
vn -0.4173 0.8396 0.3478
vn 0.8396 -0.3478 0.4173
vn -0.1829 0.4449 -0.8767
s 0
f 101//1 106//1 5//1
f 106//2 2//2 5//2
f 6//3 1//3 101//3
f 5//3 6//3 101//3
f 1//4 13//4 102//4
f 1//5 6//5 13//5
f 103//6 102//6 16//6
f 102//7 13//7 16//7
f 103//8 20//8 104//8
f 103//9 16//9 20//9
f 23//10 104//10 20//10
f 126//11 25//11 105//11
f 126//11 23//11 25//11
f 2//12 106//12 105//12
f 25//12 2//12 105//12
f 128//13 5//13 2//13
f 2//14 133//14 128//14
f 5//15 136//15 6//15
f 136//15 5//15 128//15
f 129//16 13//16 6//16
f 129//16 6//16 136//16
f 13//17 131//17 16//17
f 13//17 129//17 131//17
f 130//18 20//18 16//18
f 16//18 131//18 130//18
f 140//19 23//19 20//19
f 130//20 140//20 20//20
f 132//21 25//21 23//21
f 23//21 140//21 132//21
f 2//22 25//22 133//22
f 25//23 132//23 133//23
f 135//24 37//24 134//24
f 135//24 34//24 37//24
f 134//25 41//25 136//25
f 134//26 37//26 41//26
f 138//27 136//27 45//27
f 136//28 41//28 45//28
f 137//29 138//29 47//29
f 138//29 45//29 47//29
f 139//30 137//30 53//30
f 53//30 137//30 47//30
f 54//31 140//31 139//31
f 54//32 139//32 53//32
f 141//33 140//33 57//33
f 140//34 54//34 57//34
f 141//35 34//35 135//35
f 141//36 57//36 34//36
f 108//37 37//37 34//37
f 34//38 107//38 108//38
f 37//39 115//39 41//39
f 115//39 37//39 108//39
f 109//40 45//40 41//40
f 115//40 109//40 41//40
f 47//41 45//41 110//41
f 110//42 45//42 109//42
f 111//43 53//43 47//43
f 110//44 111//44 47//44
f 54//45 53//45 119//45
f 119//45 53//45 111//45
f 54//46 112//46 57//46
f 54//46 119//46 112//46
f 57//47 107//47 34//47
f 112//48 107//48 57//48
f 114//12 64//12 113//12
f 60//12 64//12 114//12
f 113//49 68//49 115//49
f 64//50 68//50 113//50
f 117//51 115//51 70//51
f 115//10 68//10 70//10
f 117//9 75//9 116//9
f 117//9 70//9 75//9
f 77//7 118//7 116//7
f 77//7 116//7 75//7
f 80//52 118//52 77//52
f 119//53 82//53 120//53
f 82//3 119//3 80//3
f 60//54 114//54 120//54
f 120//54 82//54 60//54
f 142//22 64//22 60//22
f 60//22 143//22 142//22
f 64//21 56//21 68//21
f 56//55 64//55 142//55
f 68//56 145//56 70//56
f 68//57 56//57 145//57
f 144//18 75//18 70//18
f 70//18 145//18 144//18
f 77//17 75//17 146//17
f 75//17 144//17 146//17
f 80//16 77//16 84//16
f 84//58 77//58 146//58
f 82//59 80//59 147//59
f 147//60 80//60 84//60
f 143//61 60//61 82//61
f 82//62 147//62 143//62
f 153//63 88//63 148//63
f 88//64 153//64 86//64
f 89//34 56//34 148//34
f 88//34 89//34 148//34
f 56//65 92//65 149//65
f 56//65 89//65 92//65
f 150//30 149//30 94//30
f 149//30 92//30 94//30
f 96//29 151//29 150//29 94//29
f 151//66 97//66 84//66
f 97//67 151//67 96//67
f 99//68 152//68 84//68
f 97//68 99//68 84//68
f 152//69 86//69 153//69
f 152//70 99//70 86//70
f 121//71 88//71 86//71
f 86//71 122//71 121//71
f 88//46 1//46 89//46
f 121//72 1//72 88//72
f 89//73 124//73 92//73
f 89//74 1//74 124//74
f 92//75 123//75 94//75
f 92//75 124//75 123//75
f 125//41 96//41 94//41
f 123//41 125//41 94//41
f 97//40 96//40 126//40
f 125//76 126//76 96//76
f 99//39 97//39 127//39
f 127//39 97//39 126//39
f 86//77 99//77 122//77
f 122//78 99//78 127//78
f 103//79 4//79 102//79
f 3//80 4//80 103//80
f 1//81 102//81 9//81
f 4//82 9//82 102//82
f 1//83 10//83 124//83
f 10//45 1//45 9//45
f 123//84 124//84 15//84
f 124//84 10//84 15//84
f 125//85 123//85 18//85
f 18//85 123//85 15//85
f 126//86 125//86 22//86
f 125//87 18//87 22//87
f 24//39 104//39 126//39
f 22//39 24//39 126//39
f 103//88 104//88 24//88 3//88
f 4//89 3//89 154//89
f 3//90 159//90 154//90
f 162//91 9//91 4//91
f 9//92 156//92 10//92
f 162//92 156//92 9//92
f 15//93 10//93 155//93
f 10//93 156//93 155//93
f 157//94 18//94 15//94
f 155//94 157//94 15//94
f 166//95 22//95 18//95
f 157//95 166//95 18//95
f 158//96 24//96 22//96
f 22//96 166//96 158//96
f 24//97 159//97 3//97
f 159//98 24//98 158//98
f 160//99 36//99 161//99
f 35//100 36//100 160//100
f 161//101 38//101 162//101
f 36//101 38//101 161//101
f 163//102 162//102 43//102
f 43//103 162//103 38//103
f 165//104 163//104 48//104
f 163//104 43//104 48//104
f 51//105 164//105 165//105
f 165//105 48//105 51//105
f 55//106 166//106 164//106
f 164//107 51//107 55//107
f 166//108 58//108 167//108
f 166//108 55//108 58//108
f 35//109 160//109 167//109
f 167//110 58//110 35//110
f 36//111 35//111 109//111
f 35//112 110//112 109//112
f 115//40 38//40 36//40
f 115//40 36//40 109//40
f 117//113 43//113 38//113
f 38//114 115//114 117//114
f 116//115 48//115 43//115
f 43//115 117//115 116//115
f 51//116 48//116 118//116
f 48//116 116//116 118//116
f 55//46 51//46 119//46
f 119//117 51//117 118//117
f 58//3 55//3 111//3
f 111//3 55//3 119//3
f 35//118 58//118 110//118
f 58//119 111//119 110//119
f 107//120 62//120 108//120
f 59//121 62//121 107//121
f 108//39 66//39 115//39
f 108//39 62//39 66//39
f 72//122 113//122 115//122
f 115//11 66//11 72//11
f 114//85 113//85 76//85
f 113//85 72//85 76//85
f 120//84 114//84 78//84
f 78//84 114//84 76//84
f 119//123 120//123 79//123
f 79//124 120//124 78//124
f 112//5 119//5 81//5
f 119//5 79//5 81//5
f 112//125 59//125 107//125
f 112//126 81//126 59//126
f 62//97 59//97 168//97
f 59//97 169//97 168//97
f 170//96 66//96 62//96
f 170//127 62//127 168//127
f 172//128 72//128 66//128
f 72//94 171//94 76//94
f 173//93 78//93 76//93
f 173//93 76//93 171//93
f 78//92 83//92 79//92
f 83//129 78//129 173//129
f 83//91 174//91 79//91
f 59//130 81//130 169//130
f 169//131 81//131 174//131
f 175//132 180//132 87//132
f 85//133 87//133 180//133
f 175//108 90//108 170//108
f 175//108 87//108 90//108
f 91//134 176//134 170//134
f 170//134 90//134 91//134
f 177//105 176//105 93//105
f 176//105 91//105 93//105
f 95//104 178//104 177//104
f 177//104 93//104 95//104
f 178//103 98//103 83//103
f 98//103 178//103 95//103
f 98//101 100//101 83//101
f 85//135 180//135 179//135
f 179//136 100//136 85//136
f 101//118 87//118 85//118
f 85//137 106//137 101//137
f 90//3 87//3 1//3
f 101//3 1//3 87//3
f 90//138 121//138 91//138
f 121//139 90//139 1//139
f 91//116 122//116 93//116
f 91//116 121//116 122//116
f 127//140 95//140 93//140
f 93//141 122//141 127//141
f 95//10 126//10 98//10
f 127//10 126//10 95//10
f 105//40 100//40 98//40
f 98//40 126//40 105//40
f 85//142 100//142 106//142
f 100//142 105//142 106//142
f 168//143 169//143 8//143
f 7//143 8//143 169//143
f 168//144 11//144 170//144
f 168//145 8//145 11//145
f 170//108 12//108 175//108
f 12//108 170//108 11//108
f 180//146 175//146 14//146
f 175//147 12//147 14//147
f 180//148 17//148 179//148
f 180//149 14//149 17//149
f 179//92 19//92 83//92
f 179//92 17//92 19//92
f 174//103 83//103 21//103
f 19//103 21//103 83//103
f 7//150 169//150 174//150
f 174//151 21//151 7//151
f 8//152 7//152 134//152
f 7//152 135//152 134//152
f 8//68 136//68 11//68
f 134//153 136//153 8//153
f 128//15 12//15 11//15
f 136//15 128//15 11//15
f 12//154 133//154 14//154
f 12//155 128//155 133//155
f 132//156 17//156 14//156
f 14//157 133//157 132//157
f 19//65 17//65 140//65
f 140//65 17//65 132//65
f 21//158 19//158 141//158
f 140//159 141//159 19//159
f 135//160 7//160 21//160 141//160
f 137//161 27//161 138//161
f 26//161 27//161 137//161
f 138//162 27//162 28//162
f 29//16 129//16 136//16
f 136//16 28//16 29//16
f 129//163 30//163 131//163
f 129//163 29//163 30//163
f 31//164 130//164 131//164 30//164
f 130//165 32//165 140//165
f 31//166 32//166 130//166
f 139//167 140//167 33//167
f 33//21 140//21 32//21
f 139//168 26//168 137//168
f 139//168 33//168 26//168
f 27//169 26//169 161//169
f 26//170 160//170 161//170
f 162//101 28//101 27//101
f 162//101 27//101 161//101
f 29//91 28//91 154//91
f 28//91 162//91 154//91
f 30//171 29//171 159//171
f 29//172 154//172 159//172
f 158//173 31//173 30//173
f 166//134 32//134 31//134
f 32//95 167//95 33//95
f 167//95 32//95 166//95
f 33//174 160//174 26//174
f 167//175 160//175 33//175
f 165//151 40//151 163//151
f 42//176 162//176 163//176
f 40//177 42//177 163//177
f 162//92 44//92 156//92
f 156//149 46//149 155//149
f 156//149 44//149 46//149
f 49//178 157//178 155//178
f 49//178 155//178 46//178
f 157//108 50//108 166//108
f 49//108 50//108 157//108
f 52//179 164//179 166//179
f 50//96 52//96 166//96
f 39//143 165//143 164//143
f 52//143 39//143 164//143
f 40//180 39//180 145//180
f 39//180 144//180 145//180
f 40//19 56//19 42//19
f 56//181 40//181 145//181
f 44//65 42//65 149//65
f 42//65 56//65 149//65
f 150//182 46//182 44//182
f 44//182 149//182 150//182
f 49//183 46//183 151//183
f 46//183 150//183 151//183
f 84//15 50//15 49//15
f 151//184 84//184 49//184
f 146//185 52//185 50//185
f 84//186 146//186 50//186
f 39//152 52//152 144//152
f 52//152 146//152 144//152
f 143//168 63//168 142//168
f 143//168 61//168 63//168
f 142//187 65//187 56//187
f 63//188 65//188 142//188
f 148//34 56//34 67//34
f 56//34 65//34 67//34
f 153//189 148//189 69//189
f 148//190 67//190 69//190
f 152//191 153//191 71//191
f 71//163 153//163 69//163
f 84//16 152//16 73//16
f 152//16 71//16 73//16
f 147//192 84//192 74//192
f 84//28 73//28 74//28
f 147//193 61//193 143//193
f 147//161 74//161 61//161
f 172//174 63//174 61//174
f 171//174 172//174 61//174
f 170//95 65//95 63//95
f 172//194 170//194 63//194
f 67//134 65//134 176//134
f 176//134 65//134 170//134
f 67//195 177//195 69//195
f 67//195 176//195 177//195
f 178//196 71//196 69//196
f 178//196 69//196 177//196
f 83//91 73//91 71//91
f 83//91 71//91 178//91
f 73//197 173//197 74//197
f 173//198 73//198 83//198
f 61//199 74//199 171//199
f 80//200 119//200 118//200
f 154//91 162//91 4//91
f 66//201 170//201 172//201
f 72//94 172//94 171//94
f 81//91 79//91 174//91
f 179//101 83//101 100//101
f 28//202 136//202 138//202
f 159//203 158//203 30//203
f 166//134 31//134 158//134
f 39//151 40//151 165//151
f 162//92 42//92 44//92
f 171//199 74//199 173//199
